# xmcd
#
# Track frame offsets:
#	150
#	13242
#	30314
#	43995
#	60361
#	69167
#	82099
#	96484
#
# Disc length: 1472 seconds
#
# Revision: 0
# Processed by: cddbd v1.5.2PL0 Copyright (c) Steve Scherf et al.
# Submitted via: dBpowerAMP V4.0
#
DISCID=6305be08
DTITLE=Dolly Parton - Power hits of Dolly Parton
DYEAR=2000
DGENRE=Country
TTITLE0=Jolene
TTITLE1=Islands in the stream
TTITLE2=I will always love you
TTITLE3=Wildflowers
TTITLE4=If teardrops were pennies
TTITLE5=My Tennessee mountain home
TTITLE6=Coat of many colours
TTITLE7=Joshua
EXTD=
EXTT0=
EXTT1=
EXTT2=
EXTT3=
EXTT4=
EXTT5=
EXTT6=
EXTT7=
PLAYORDER=
